<?xml version="1.0" encoding="UTF-8" standalone="no"?>
<svg
   xmlns:dc="http://purl.org/dc/elements/1.1/"
   xmlns:cc="http://creativecommons.org/ns#"
   xmlns:rdf="http://www.w3.org/1999/02/22-rdf-syntax-ns#"
   xmlns:svg="http://www.w3.org/2000/svg"
   xmlns="http://www.w3.org/2000/svg"
   xmlns:sodipodi="http://sodipodi.sourceforge.net/DTD/sodipodi-0.dtd"
   xmlns:inkscape="http://www.inkscape.org/namespaces/inkscape"
   sodipodi:docname="aspects_all.svg"
   inkscape:version="1.0 (4035a4fb49, 2020-05-01)"
   id="svg8"
   version="1.1"
   viewBox="0 0 210 297"
   height="297mm"
   width="210mm">
  <defs
     id="defs2" />
  <sodipodi:namedview
     inkscape:window-maximized="1"
     inkscape:window-y="-8"
     inkscape:window-x="-8"
     inkscape:window-height="1137"
     inkscape:window-width="1920"
     showgrid="false"
     inkscape:document-rotation="0"
     inkscape:current-layer="layer1"
     inkscape:document-units="mm"
     inkscape:cy="383.38472"
     inkscape:cx="380.60826"
     inkscape:zoom="1.979899"
     inkscape:pageshadow="2"
     inkscape:pageopacity="0.0"
     borderopacity="1.0"
     bordercolor="#666666"
     pagecolor="#ffffff"
     id="base" />
  <metadata
     id="metadata5">
    <rdf:RDF>
      <cc:Work
         rdf:about="">
        <dc:format>image/svg+xml</dc:format>
        <dc:type
           rdf:resource="http://purl.org/dc/dcmitype/StillImage" />
        <dc:title></dc:title>
      </cc:Work>
    </rdf:RDF>
  </metadata>
  <g
     id="layer1"
     inkscape:groupmode="layer"
     inkscape:label="Layer 1">
    <rect
       y="61.232143"
       x="61.232143"
       height="62.259296"
       width="36.106899"
       id="rect833"
       style="fill:#000000;stroke-width:1.25728" />
    <path
       d="M 64.375637,66.078567 A 7.8176336,7.7344675 0 0 1 75.271738,64.226677 7.8176336,7.7344675 0 0 1 77.143731,75.00683 7.8176336,7.7344675 0 0 1 66.247696,76.859096 7.8176336,7.7344675 0 0 1 64.375322,66.079008"
       sodipodi:arc-type="arc"
       sodipodi:open="true"
       sodipodi:end="3.7568038"
       sodipodi:start="3.7568736"
       sodipodi:ry="7.7344675"
       sodipodi:rx="7.8176336"
       sodipodi:cy="70.542809"
       sodipodi:cx="70.759605"
       sodipodi:type="arc"
       id="path835"
       style="fill:#ff0000;stroke-width:0.329321" />
    <path
       style="fill:#ff0000;stroke-width:0.329322"
       id="path835-0"
       sodipodi:type="arc"
       sodipodi:cx="70.692795"
       sodipodi:cy="114.12408"
       sodipodi:rx="7.8176341"
       sodipodi:ry="7.7344675"
       sodipodi:start="3.7568736"
       sodipodi:end="3.7568038"
       sodipodi:open="true"
       sodipodi:arc-type="arc"
       d="m 64.308826,109.65984 a 7.8176341,7.7344675 0 0 1 10.896102,-1.85189 7.8176341,7.7344675 0 0 1 1.871993,10.78015 7.8176341,7.7344675 0 0 1 -10.896036,1.85226 7.8176341,7.7344675 0 0 1 -1.872374,-10.78008" />
    <path
       d="m 81.414073,109.65984 a 7.8176346,7.7344675 0 0 1 10.896103,-1.85189 7.8176346,7.7344675 0 0 1 1.871993,10.78015 7.8176346,7.7344675 0 0 1 -10.896037,1.85226 7.8176346,7.7344675 0 0 1 -1.872374,-10.78008"
       sodipodi:arc-type="arc"
       sodipodi:open="true"
       sodipodi:end="3.7568038"
       sodipodi:start="3.7568736"
       sodipodi:ry="7.7344675"
       sodipodi:rx="7.8176346"
       sodipodi:cy="114.12408"
       sodipodi:cx="87.798042"
       sodipodi:type="arc"
       id="path835-0-4"
       style="fill:#ffff00;stroke-width:0.329322" />
    <path
       d="m 81.280437,65.961273 a 7.8176346,7.7344675 0 0 1 10.896102,-1.85189 7.8176346,7.7344675 0 0 1 1.871993,10.780152 7.8176346,7.7344675 0 0 1 -10.896037,1.852267 7.8176346,7.7344675 0 0 1 -1.872373,-10.780088"
       sodipodi:arc-type="arc"
       sodipodi:open="true"
       sodipodi:end="3.7568038"
       sodipodi:start="3.7568736"
       sodipodi:ry="7.7344675"
       sodipodi:rx="7.8176346"
       sodipodi:cy="70.425514"
       sodipodi:cx="87.664406"
       sodipodi:type="arc"
       id="path835-0-7"
       style="fill:#00ea00;stroke-width:0.329322;fill-opacity:1" />
  </g>
</svg>
